<?xml version="1.0" standalone="no"?>
<!DOCTYPE svg PUBLIC "-//W3C//DTD SVG 20010904//EN"
 "http://www.w3.org/TR/2001/REC-SVG-20010904/DTD/svg10.dtd">
<svg version="1.0" xmlns="http://www.w3.org/2000/svg"
 width="1280.000000pt" height="1034.000000pt" viewBox="0 0 1280.000000 1034.000000"
 preserveAspectRatio="xMidYMid meet">
<metadata>
Created by potrace 1.15, written by Peter Selinger 2001-2017
</metadata>
<g transform="translate(0.000000,1034.000000) scale(0.100000,-0.100000)"
fill="#000000" stroke="none">
<path d="M3215 10329 c-267 -39 -540 -191 -706 -394 -124 -151 -122 -147 -489
-1020 -166 -396 -417 -992 -557 -1325 -139 -333 -268 -640 -286 -682 l-32 -77
-80 -26 c-44 -14 -126 -48 -182 -74 -384 -184 -667 -508 -802 -918 -81 -244
-75 -95 -79 -2050 l-2 -1743 510 0 510 0 0 -504 c0 -277 5 -549 10 -605 45
-434 344 -777 770 -884 121 -30 339 -30 460 0 423 106 721 447 769 876 7 56
11 311 11 607 l0 510 3360 0 3360 0 0 -549 c0 -589 3 -640 53 -786 110 -321
374 -566 703 -651 565 -145 1127 211 1241 786 12 62 14 176 13 637 l-1 563
513 2 513 3 3 1680 c3 1739 2 1783 -38 1966 -70 316 -259 629 -505 837 -160
135 -299 215 -503 289 l-103 38 -155 370 c-86 204 -225 535 -310 738 -85 202
-224 535 -310 740 -476 1134 -449 1074 -540 1197 -160 218 -385 362 -684 438
-60 15 -323 16 -3220 18 -1749 1 -3182 -2 -3215 -7z m6242 -838 c60 -27 134
-101 158 -157 25 -58 124 -295 298 -709 85 -203 241 -577 347 -830 106 -253
234 -559 284 -680 l92 -220 -2118 -3 c-1165 -1 -3072 -1 -4237 0 l-2119 3 137
330 c76 182 306 733 511 1225 205 492 386 914 402 937 39 58 118 110 193 126
11 3 1366 4 3010 3 l2990 -1 52 -24z m-7267 -3621 c430 -45 777 -340 892 -758
18 -64 22 -106 22 -247 1 -193 -11 -260 -74 -406 -99 -233 -310 -445 -537
-539 -150 -63 -211 -74 -403 -74 -192 0 -253 11 -403 74 -222 92 -435 303
-532 527 -100 231 -112 505 -33 737 126 372 466 644 855 685 110 12 108 12
213 1z m8549 0 c402 -42 740 -308 869 -686 58 -170 67 -401 23 -572 -96 -367
-369 -642 -737 -744 -110 -30 -382 -32 -494 -4 -177 45 -329 129 -462 255
-137 130 -227 277 -284 466 -26 84 -28 102 -28 275 0 171 2 191 26 270 57 185
136 318 263 445 188 188 398 279 706 304 9 0 62 -4 118 -9z"/>
</g>
</svg>
